<svg width="32" height="36" viewBox="0 0 32 36" fill="none" xmlns="http://www.w3.org/2000/svg">
<g clip-path="url(#clip0)">
<path d="M15.6643 -8.50382e-05C7.01927 -0.00845223 0.00728148 8.04423 5.66485e-06 17.986C-0.00727015 27.9278 6.99506 35.9916 15.6401 35.9999C24.2839 35.9916 31.291 27.9403 31.3044 17.9999C31.3044 8.0637 24.3045 0.00828215 15.6643 -8.50382e-05ZM15.6401 33.0046C8.43427 33.0046 2.59258 26.2866 2.59258 17.9999C2.59258 9.71324 8.43427 2.9953 15.6401 2.9953C22.8434 3.00367 28.6803 9.71605 28.6876 17.9999C28.6876 26.2866 22.8459 33.0046 15.6401 33.0046Z" fill="url(#paint0_linear)"/>
<path d="M19.5964 16.7028L18.6619 17.3086L19.7356 17.6044C20.818 17.9026 21.6559 19.0336 21.6823 20.4288C21.6816 21.7029 21.4026 22.7202 20.7894 23.4166C20.1862 24.1016 19.1813 24.5636 17.5302 24.5636H17.1668H16.6668V25.0636V27.7679H16.0071V25.0636V24.5636H15.5071H14.3683H13.8683V25.0636V27.7679H13.1601V25.0636V24.5636H12.6601H9.86492V23.5017H10.6612C10.9455 23.5017 11.2646 23.4035 11.5006 23.1186C11.7243 22.8484 11.8154 22.4791 11.8154 22.0543V13.3747C11.8154 13.0256 11.721 12.6714 11.421 12.4266C11.145 12.2013 10.7892 12.1503 10.4674 12.1503H9.69531V11.1301H12.6117H13.1117V10.6301V7.99545H13.8078V10.6301V11.1301H14.3078H15.4465H15.9465V10.6301V7.99545H16.6426V10.658V11.1117L17.0942 11.1556C17.9085 11.2347 18.8031 11.4609 19.508 11.8911C20.2001 12.3134 20.6896 12.9161 20.7891 13.7802L20.7889 13.7802L20.7909 13.7938C20.962 14.989 20.459 16.1437 19.5964 16.7028ZM14.3077 12.2756H13.8077V12.7756V16.6069V17.1069H14.3077H16.5489H16.5853L16.6213 17.1016C17.8216 16.9261 18.6018 15.7493 18.539 14.5171C18.5365 14.0333 18.406 13.626 18.172 13.297C17.939 12.9693 17.6254 12.75 17.3056 12.6033C16.6801 12.3164 15.9603 12.2756 15.5192 12.2756H14.3077ZM15.6855 23.2926V23.3066H16.1855C17.1673 23.3066 17.9884 23.0698 18.5668 22.542C19.153 22.0072 19.4113 21.2462 19.4113 20.3685C19.4113 19.3227 18.7448 18.7415 18.0957 18.4496C17.4651 18.166 16.7813 18.1131 16.4884 18.1131H14.3077H13.8077V18.6131V22.7926V23.2926H14.3077H15.6855Z" fill="url(#paint1_linear)" stroke="url(#paint2_linear)"/>
</g>
<defs>
<linearGradient id="paint0_linear" x1="43.5257" y1="42.5786" x2="-54.3053" y2="12.7883" gradientUnits="userSpaceOnUse">
<stop stop-color="#B57E10"/>
<stop offset="0.1507" stop-color="#B57E10"/>
<stop offset="0.4638" stop-color="#E5C35C"/>
<stop offset="0.6129" stop-color="#F9DF7B"/>
<stop offset="0.7204" stop-color="#FFF3A6"/>
<stop offset="0.8387" stop-color="#F9DF7B"/>
<stop offset="1" stop-color="#B57E10"/>
</linearGradient>
<linearGradient id="paint1_linear" x1="27.2525" y1="32.0639" x2="-15.0687" y2="22.7983" gradientUnits="userSpaceOnUse">
<stop stop-color="#B57E10"/>
<stop offset="0.1507" stop-color="#B57E10"/>
<stop offset="0.4638" stop-color="#E5C35C"/>
<stop offset="0.6129" stop-color="#F9DF7B"/>
<stop offset="0.7204" stop-color="#FFF3A6"/>
<stop offset="0.8387" stop-color="#F9DF7B"/>
<stop offset="1" stop-color="#B57E10"/>
</linearGradient>
<linearGradient id="paint2_linear" x1="27.2525" y1="32.0639" x2="-15.0687" y2="22.7983" gradientUnits="userSpaceOnUse">
<stop stop-color="#B57E10"/>
<stop offset="0.1507" stop-color="#B57E10"/>
<stop offset="0.4638" stop-color="#E5C35C"/>
<stop offset="0.6129" stop-color="#F9DF7B"/>
<stop offset="0.7204" stop-color="#FFF3A6"/>
<stop offset="0.8387" stop-color="#F9DF7B"/>
<stop offset="1" stop-color="#B57E10"/>
</linearGradient>
<clipPath id="clip0">
<rect width="31.3043" height="36" fill="white"/>
</clipPath>
</defs>
</svg>
