<svg width="33" height="33" viewBox="0 0 33 33" fill="none" xmlns="http://www.w3.org/2000/svg">
<g clip-path="url(#clip0)">
<path d="M16.5128 -0.000116099C7.39948 -0.00778602 0.00767589 7.37384 5.9717e-06 16.4871C-0.00766395 25.6004 7.37396 32.9922 16.4872 32.9999C25.5993 32.9922 32.986 25.6119 33 16.4999C33 7.39169 25.621 0.00755382 16.5128 -0.000116099ZM16.4872 30.2542C8.89112 30.2542 2.73301 24.096 2.73301 16.4999C2.73301 8.90376 8.89112 2.74565 16.4872 2.74565C24.0808 2.75332 30.2338 8.90634 30.2415 16.4999C30.2415 24.096 24.0834 30.2542 16.4872 30.2542Z" fill="url(#paint0_linear)"/>
<path d="M20.699 15.2599L19.5899 15.8851L20.8281 16.1818C22.0129 16.4656 22.8569 17.5116 22.8838 18.7275C22.8829 19.8738 22.5961 20.784 21.9597 21.4124C21.3211 22.043 20.2444 22.475 18.4797 22.475H18.0966H17.5966V22.975V25.4123H16.847V22.975V22.475H16.347H15.1465H14.6465V22.975V25.4123H13.8459V22.975V22.475H13.3459H10.3722V21.5849H11.2386C11.5103 21.5849 11.831 21.5056 12.0796 21.2445C12.3255 20.9864 12.4283 20.6263 12.4283 20.2164V12.2602C12.4283 11.9091 12.3147 11.5647 11.9958 11.3384C11.7169 11.1405 11.3623 11.0961 11.0343 11.0961H10.1934V10.2443H13.2948H13.7948V9.7443V7.37085H14.5827V9.7443V10.2443H15.0827H16.2832H16.7832V9.7443V7.37085H17.5711V9.76982V10.2294L18.029 10.268C18.8971 10.3414 19.8522 10.5512 20.6049 10.9506C21.3514 11.3467 21.8438 11.895 21.9431 12.6451L21.9441 12.6528L21.9454 12.6606C22.1169 13.7026 21.6194 14.7412 20.699 15.2599ZM15.0827 11.211H14.5827V11.711V15.223V15.723H15.0827H17.4453H17.4769L17.5083 15.719C18.7085 15.5664 19.5856 14.5114 19.5161 13.304C19.5128 12.8375 19.3667 12.4472 19.1138 12.138C18.8649 11.8336 18.5357 11.6358 18.2084 11.5052C17.564 11.2482 16.8205 11.211 16.3598 11.211H15.0827ZM16.5622 21.3933V21.406H17.0622C18.0789 21.406 18.9261 21.1942 19.528 20.7167C20.1495 20.2236 20.4356 19.5068 20.4356 18.6711C20.4356 17.6506 19.6916 17.1186 19.0418 16.8645C18.3899 16.6096 17.6823 16.562 17.3815 16.562H15.0827H14.5827V17.062V20.8933V21.3933H15.0827H16.5622Z" fill="url(#paint1_linear)" stroke="url(#paint2_linear)"/>
</g>
<defs>
<linearGradient id="paint0_linear" x1="45.8834" y1="39.0304" x2="-54.4997" y2="3.87779" gradientUnits="userSpaceOnUse">
<stop stop-color="#B57E10"/>
<stop offset="0.1507" stop-color="#B57E10"/>
<stop offset="0.4638" stop-color="#E5C35C"/>
<stop offset="0.6129" stop-color="#F9DF7B"/>
<stop offset="0.7204" stop-color="#FFF3A6"/>
<stop offset="0.8387" stop-color="#F9DF7B"/>
<stop offset="1" stop-color="#B57E10"/>
</linearGradient>
<linearGradient id="paint1_linear" x1="28.7286" y1="29.392" x2="-15.2364" y2="18.3226" gradientUnits="userSpaceOnUse">
<stop stop-color="#B57E10"/>
<stop offset="0.1507" stop-color="#B57E10"/>
<stop offset="0.4638" stop-color="#E5C35C"/>
<stop offset="0.6129" stop-color="#F9DF7B"/>
<stop offset="0.7204" stop-color="#FFF3A6"/>
<stop offset="0.8387" stop-color="#F9DF7B"/>
<stop offset="1" stop-color="#B57E10"/>
</linearGradient>
<linearGradient id="paint2_linear" x1="28.7286" y1="29.392" x2="-15.2364" y2="18.3226" gradientUnits="userSpaceOnUse">
<stop stop-color="#B57E10"/>
<stop offset="0.1507" stop-color="#B57E10"/>
<stop offset="0.4638" stop-color="#E5C35C"/>
<stop offset="0.6129" stop-color="#F9DF7B"/>
<stop offset="0.7204" stop-color="#FFF3A6"/>
<stop offset="0.8387" stop-color="#F9DF7B"/>
<stop offset="1" stop-color="#B57E10"/>
</linearGradient>
<clipPath id="clip0">
<rect width="33" height="33" fill="white"/>
</clipPath>
</defs>
</svg>
