<svg width="265" height="280" viewBox="0 0 265 280" fill="none" xmlns="http://www.w3.org/2000/svg">
<path fill-rule="evenodd" clip-rule="evenodd" d="M319.908 145.211C267.676 151.226 204.252 127.566 155.412 151.226C217.819 103.104 379.602 177.292 406.057 33.3282C341.615 108.318 239.865 72.2264 153.038 120.348C52.6441 176.089 105.554 287.971 210.696 279.55C191.025 275.941 139.81 242.657 151.681 212.18C173.727 154.033 286.331 204.962 319.908 145.211ZM416.91 -77.3514C390.116 15.6836 278.53 25.3079 221.889 48.9677C253.771 26.511 338.223 2.85117 377.906 -50.0825C399.613 -79.3564 409.788 -126.676 385.707 -168.782C378.245 -99.4071 320.587 -34.042 256.823 -2.76299C329.744 -46.4734 395.882 -198.056 313.464 -255C321.604 -146.326 241.561 -10.7832 109.963 97.0892C102.502 103.104 89.2742 115.937 84.8651 125.561C86.2217 110.724 107.25 91.475 113.355 85.4598C73.6725 93.4801 23.8149 64.6071 15.3357 108.318C22.119 108.719 28.9024 111.526 34.6682 116.338C23.4757 111.125 -3.65768 109.12 0.412323 131.977C2.7865 125.561 10.9265 124.759 19.4057 126.363C64.1758 136.388 57.7317 173.282 85.2042 197.342C87.2392 157.241 117.764 127.967 148.629 109.922C241.221 56.5869 434.208 95.0841 416.91 -77.3514Z" fill="#0B1F2A"/>
</svg>
