<svg width="264" height="280" viewBox="0 0 264 280" fill="none" xmlns="http://www.w3.org/2000/svg">
<path d="M109.963 97.0892C241.302 -10.5712 321.289 -145.793 313.511 -254.359C313.688 -254.236 313.863 -254.112 314.038 -253.988M109.963 97.0892L261.277 -5.57132C332.225 -52.5161 393.929 -198.576 313.993 -254.632C314.008 -254.418 314.024 -254.203 314.038 -253.988M109.963 97.0892C102.858 102.817 90.5244 114.727 85.5555 124.161L109.963 97.0892ZM314.038 -253.988C354.175 -225.575 358.134 -174.111 342.917 -124.064C327.597 -73.6745 292.895 -24.9684 256.566 -3.19185L257.043 -2.31409C320.44 -33.4133 377.865 -98.1698 386.03 -167.188C409.018 -125.628 398.886 -79.2167 377.505 -50.3816C357.736 -24.0119 326.791 -4.90645 296.745 10.4261C285.832 15.9948 275.051 21.0594 264.974 25.7936C261.18 27.576 257.485 29.3115 253.921 31.0096C240.904 37.2109 229.611 42.9168 221.601 48.5589L222.081 49.429C234.457 44.2598 249.464 39.7607 265.67 34.9021C267.968 34.2131 270.29 33.517 272.633 32.8106C291.479 27.1272 311.601 20.7911 330.795 12.2809C368.505 -4.43921 402.702 -29.5831 416.655 -74.7474C420.374 -33.1041 411.586 -4.07668 394.918 16.8445C377.901 38.2052 352.615 51.186 323.825 60.472C301.568 67.6506 277.268 72.6069 253.125 77.5311C246.031 78.9781 238.95 80.4223 231.938 81.9194C201.096 88.5046 171.602 96.1113 148.379 109.488L148.376 109.49C117.728 127.409 87.2798 156.457 84.7639 196.281C74.787 187.246 69.4351 176.504 64.2047 166.005C62.5796 162.743 60.9663 159.505 59.2296 156.348C55.5064 149.582 51.2218 143.22 45.0361 137.92C38.8463 132.616 30.778 128.397 19.515 125.875L19.5068 125.873L19.4986 125.872C15.2257 125.063 10.9926 124.851 7.50458 125.676C4.56247 126.372 2.11923 127.816 0.664795 130.28C0.0971375 125.493 1.0336 121.982 2.8779 119.452C4.92905 116.638 8.16156 114.955 11.9252 114.119C19.472 112.443 28.9409 114.222 34.4571 116.791L34.9886 115.954C29.3107 111.215 22.6457 108.386 15.9372 107.858C18.0851 97.3816 22.6697 91.29 28.8889 87.8717C35.251 84.3748 43.4028 83.6294 52.6238 84.0045C58.3587 84.2377 64.4502 84.8995 70.7432 85.5831C74.5815 86.0001 78.4948 86.4253 82.4479 86.7663C92.283 87.6147 102.309 87.9344 111.82 86.2587C111.663 86.4111 111.501 86.5686 111.333 86.7311C107.865 90.0932 102.192 95.5937 96.9455 101.882C93.8395 105.604 90.8729 109.615 88.5954 113.635C86.3206 117.651 84.7154 121.707 84.3671 125.516L85.3196 125.769C87.4898 121.032 91.8538 115.466 96.6361 110.312C101.41 105.166 106.565 100.471 110.277 97.4784L110.28 97.4759C176.118 43.5078 229.07 -17.3901 264.547 -78.4033C299.794 -139.02 317.811 -199.783 314.038 -253.988ZM318.984 145.817C299.153 147.956 277.736 145.919 256.193 143.87C249.576 143.241 242.948 142.611 236.35 142.1C207.867 139.895 179.92 139.909 155.63 151.676L155.107 150.83C170.831 138.705 192.773 134.312 217.141 132.25C227.966 131.334 239.292 130.876 250.785 130.412C252.236 130.353 253.69 130.295 255.146 130.235C268.138 129.701 281.293 129.085 294.164 127.721C319.911 124.992 344.462 119.277 364.22 105.309C383.625 91.5907 398.462 69.8722 405.223 35.0475C373.049 71.5385 331.824 81.119 288.013 87.4084C281.463 88.3486 274.857 89.2154 268.214 90.0869C229.821 95.124 190.203 100.322 153.28 120.785C128.26 134.677 112.833 152.042 105.37 170.114C97.9074 188.184 98.3913 206.995 105.254 223.821C118.694 256.773 156.641 282.17 207.398 279.275C202.824 277.962 197.192 275.519 191.264 272.224C183.852 268.103 175.944 262.63 169.023 256.31C162.105 249.992 156.151 242.81 152.674 235.266C149.193 227.714 148.186 219.776 151.214 212C156.798 197.276 168.122 189.475 182.399 185.11C196.522 180.792 213.597 179.817 230.968 178.825L231.442 178.798C249.006 177.794 266.859 176.743 282.418 172.225C297.658 167.8 310.65 160.061 318.984 145.817Z" stroke="url(#paint0_linear)"/>
<defs>
<linearGradient id="paint0_linear" x1="-163.189" y1="377.767" x2="1164.84" y2="14.4151" gradientUnits="userSpaceOnUse">
<stop stop-color="#B57E10"/>
<stop offset="0.1507" stop-color="#B57E10"/>
<stop offset="0.4638" stop-color="#E5C35C"/>
<stop offset="0.6129" stop-color="#F9DF7B"/>
<stop offset="0.7204" stop-color="#FFF3A6"/>
<stop offset="0.8387" stop-color="#F9DF7B"/>
<stop offset="1" stop-color="#B57E10"/>
</linearGradient>
</defs>
</svg>
