<svg width="700" height="896" viewBox="0 0 700 896" fill="none" xmlns="http://www.w3.org/2000/svg">
<path fill-rule="evenodd" clip-rule="evenodd" d="M536.288 668.077C449.218 678.118 343.489 638.622 262.072 678.118C366.105 597.788 635.798 721.63 679.898 481.31C572.473 606.49 402.855 546.243 258.114 626.573C90.7578 719.621 178.959 906.388 354.231 892.331C321.439 886.306 236.064 830.744 255.853 779.869C292.603 682.804 480.314 767.819 536.288 668.077ZM697.991 296.551C653.325 451.855 467.31 467.921 372.889 507.417C426.036 469.93 566.82 430.434 632.971 342.071C669.156 293.204 686.118 214.213 645.975 143.924C633.536 259.733 537.419 368.848 431.125 421.062C552.685 348.096 662.936 95.057 525.546 0C539.115 181.412 405.682 407.674 186.309 587.747C173.871 597.788 151.82 619.209 144.47 635.275C146.732 610.507 181.786 578.375 191.963 568.334C125.812 581.722 42.6993 533.524 28.5645 606.49C39.8724 607.16 51.1802 611.846 60.7919 619.879C42.134 611.176 -3.09753 607.829 3.68719 645.986C7.64496 635.275 21.2144 633.936 35.3492 636.614C109.981 653.349 99.2387 714.936 145.036 755.1C148.428 688.159 199.313 639.292 250.764 609.168C405.117 520.136 726.826 584.4 697.991 296.551Z" fill="url(#paint0_linear)"/>
<defs>
<linearGradient id="paint0_linear" x1="-269.037" y1="1056.28" x2="1945.22" y2="451.297" gradientUnits="userSpaceOnUse">
<stop stop-color="#B57E10"/>
<stop offset="0.1507" stop-color="#B57E10"/>
<stop offset="0.4638" stop-color="#E5C35C"/>
<stop offset="0.6129" stop-color="#F9DF7B"/>
<stop offset="0.7204" stop-color="#FFF3A6"/>
<stop offset="0.8387" stop-color="#F9DF7B"/>
<stop offset="1" stop-color="#B57E10"/>
</linearGradient>
</defs>
</svg>
