<svg width="34" height="38" viewBox="0 0 34 38" fill="none" xmlns="http://www.w3.org/2000/svg">
<path d="M5.43028 30.2337C7.83965 32.8325 10.8762 34.5177 14.1761 35.1214L13.5533 35.7931C13.4644 35.889 13.4644 36.0373 13.5534 36.1332L14.9686 37.6577C15.016 37.7087 15.0824 37.7376 15.1519 37.7376C15.2215 37.7376 15.2879 37.7086 15.3352 37.6576L18.4443 34.304C18.525 34.2169 18.5334 34.0851 18.4643 33.9885L15.736 30.1759C15.6956 30.1194 15.6335 30.0823 15.5647 30.0734C15.4958 30.0646 15.4263 30.0847 15.3729 30.1291L13.7887 31.4463C13.6879 31.5301 13.669 31.6775 13.7452 31.7841L14.1999 32.4194C7.93139 31.0492 3.17653 25.0513 3.17653 17.8565C3.17653 9.64622 9.36486 2.99923 16.9318 2.99923C24.4987 2.99923 30.6871 9.64622 30.6871 17.8565C30.6871 23.8212 27.4029 29.181 22.3392 31.522C22.2187 31.5778 22.1628 31.718 22.2118 31.8414L23.0005 33.8235C23.0259 33.8873 23.0764 33.9378 23.1401 33.9633C23.2039 33.9887 23.2754 33.9868 23.3377 33.958C29.3288 31.188 33.1878 24.8636 33.1878 17.8565C33.1878 13.1848 31.5009 8.7881 28.4333 5.47935C25.3649 2.16966 21.2799 0.342529 16.9318 0.342529C12.5836 0.342529 8.49865 2.16966 5.43027 5.47935C2.3627 8.7881 0.675781 13.1848 0.675781 17.8565C0.675781 22.5282 2.3627 26.925 5.43028 30.2337Z" fill="url(#paint0_linear)" stroke="url(#paint1_linear)" stroke-width="0.5" stroke-linejoin="round"/>
<path d="M21.1363 14.976C21.1363 13.0975 19.8411 11.5132 18.0825 11.0236V9.51884C18.0825 9.436 18.0153 9.36884 17.9325 9.36884H15.9317C15.8489 9.36884 15.7817 9.436 15.7817 9.51884V11.0236C14.0232 11.5132 12.7279 13.0975 12.7279 14.976C12.7279 17.245 14.6172 19.0848 16.9321 19.0848C18.0006 19.0848 18.8356 19.8439 18.8356 20.7369C18.8356 21.6299 18.0006 22.389 16.9321 22.389C15.8637 22.389 15.0287 21.6299 15.0287 20.7369C15.0287 20.654 14.9615 20.5869 14.8787 20.5869H12.8779C12.7951 20.5869 12.7279 20.654 12.7279 20.7369C12.7279 22.6153 14.0231 24.1997 15.7817 24.6893V26.194C15.7817 26.2768 15.8489 26.344 15.9317 26.344H17.9325C18.0153 26.344 18.0825 26.2768 18.0825 26.194V24.6893C19.841 24.1997 21.1363 22.6153 21.1363 20.7369C21.1363 18.4678 19.2471 16.6281 16.9321 16.6281C15.8637 16.6281 15.0287 15.869 15.0287 14.976C15.0287 14.083 15.8637 13.3239 16.9321 13.3239C18.0006 13.3239 18.8356 14.083 18.8356 14.976C18.8356 15.0588 18.9027 15.126 18.9856 15.126H20.9863C21.0691 15.126 21.1363 15.0588 21.1363 14.976Z" fill="url(#paint2_linear)" stroke="url(#paint3_linear)" stroke-width="0.3" stroke-linecap="round" stroke-linejoin="round"/>
<defs>
<linearGradient id="paint0_linear" x1="45.4354" y1="44.2298" x2="-54.6445" y2="13.8218" gradientUnits="userSpaceOnUse">
<stop stop-color="#B57E10"/>
<stop offset="0.1507" stop-color="#B57E10"/>
<stop offset="0.4638" stop-color="#E5C35C"/>
<stop offset="0.6129" stop-color="#F9DF7B"/>
<stop offset="0.7204" stop-color="#FFF3A6"/>
<stop offset="0.8387" stop-color="#F9DF7B"/>
<stop offset="1" stop-color="#B57E10"/>
</linearGradient>
<linearGradient id="paint1_linear" x1="45.4354" y1="44.2298" x2="-54.6445" y2="13.8218" gradientUnits="userSpaceOnUse">
<stop stop-color="#B57E10"/>
<stop offset="0.1507" stop-color="#B57E10"/>
<stop offset="0.4638" stop-color="#E5C35C"/>
<stop offset="0.6129" stop-color="#F9DF7B"/>
<stop offset="0.7204" stop-color="#FFF3A6"/>
<stop offset="0.8387" stop-color="#F9DF7B"/>
<stop offset="1" stop-color="#B57E10"/>
</linearGradient>
<linearGradient id="paint2_linear" x1="24.1519" y1="29.2412" x2="-2.7575" y2="24.6591" gradientUnits="userSpaceOnUse">
<stop stop-color="#B57E10"/>
<stop offset="0.1507" stop-color="#B57E10"/>
<stop offset="0.4638" stop-color="#E5C35C"/>
<stop offset="0.6129" stop-color="#F9DF7B"/>
<stop offset="0.7204" stop-color="#FFF3A6"/>
<stop offset="0.8387" stop-color="#F9DF7B"/>
<stop offset="1" stop-color="#B57E10"/>
</linearGradient>
<linearGradient id="paint3_linear" x1="24.1519" y1="29.2412" x2="-2.7575" y2="24.6591" gradientUnits="userSpaceOnUse">
<stop stop-color="#B57E10"/>
<stop offset="0.1507" stop-color="#B57E10"/>
<stop offset="0.4638" stop-color="#E5C35C"/>
<stop offset="0.6129" stop-color="#F9DF7B"/>
<stop offset="0.7204" stop-color="#FFF3A6"/>
<stop offset="0.8387" stop-color="#F9DF7B"/>
<stop offset="1" stop-color="#B57E10"/>
</linearGradient>
</defs>
</svg>
