<svg width="33" height="34" viewBox="0 0 33 34" fill="none" xmlns="http://www.w3.org/2000/svg">
<path d="M5.18414 26.6058C7.45567 28.8446 10.312 30.2986 13.4133 30.8292L12.8789 31.3559C12.8312 31.4029 12.8044 31.4671 12.8044 31.534C12.8044 31.601 12.8313 31.6651 12.8791 31.7121L14.2196 33.0317C14.317 33.1275 14.4732 33.1274 14.5705 33.0315L17.5157 30.1289C17.6062 30.0397 17.6154 29.8967 17.537 29.7967L14.9526 26.4966C14.8684 26.389 14.7134 26.369 14.6046 26.4517L13.1039 27.5918C13.0506 27.6323 13.0158 27.6925 13.0072 27.7589C12.9986 27.8252 13.017 27.8923 13.0583 27.945L13.4308 28.4207C7.51744 27.2109 3.06422 22.0366 3.06422 15.8618C3.06422 8.79304 8.90039 3.03565 16.0811 3.03565C23.2618 3.03565 29.098 8.79304 29.098 15.8618C29.098 20.9998 26.0018 25.63 21.2055 27.6561C21.144 27.6821 21.0955 27.7316 21.0707 27.7936C21.0459 27.8556 21.047 27.925 21.0736 27.9862L21.8207 29.7018C21.8754 29.8274 22.021 29.8856 22.1472 29.8323C27.8229 27.4346 31.4933 21.9515 31.4933 15.8618C31.4933 11.8031 29.889 7.98664 26.9781 5.11777C24.0671 2.24876 20.1963 0.668915 16.0811 0.668915C11.9659 0.668915 8.09511 2.24876 5.18414 5.11777C2.27324 7.98664 0.668945 11.8031 0.668945 15.8618C0.668945 19.9205 2.27324 23.737 5.18414 26.6058Z" fill="url(#paint0_linear)" stroke="url(#paint1_linear)" stroke-width="0.5" stroke-linejoin="round"/>
<path d="M17.8768 13.3686C17.8768 13.4514 17.944 13.5186 18.0268 13.5186H19.9221C20.0049 13.5186 20.0721 13.4514 20.0721 13.3686C20.0721 11.7267 18.8371 10.3552 17.1793 9.92953V8.64511C17.1793 8.56227 17.1121 8.49511 17.0293 8.49511H15.134C15.0512 8.49511 14.984 8.56227 14.984 8.64511V9.92953C13.3262 10.3552 12.0912 11.7267 12.0912 13.3686C12.0912 15.3564 13.8977 16.9451 16.0817 16.9451C17.104 16.9451 17.8768 17.6069 17.8768 18.3549C17.8768 19.1029 17.104 19.7647 16.0817 19.7647C15.0593 19.7647 14.2865 19.1029 14.2865 18.3549C14.2865 18.2721 14.2193 18.2049 14.1365 18.2049H12.2412C12.1584 18.2049 12.0912 18.2721 12.0912 18.3549C12.0912 19.9967 13.3262 21.3682 14.984 21.7939V23.0783C14.984 23.1611 15.0512 23.2283 15.134 23.2283H17.0293C17.1121 23.2283 17.1793 23.1611 17.1793 23.0783V21.7939C18.8371 21.3682 20.0721 19.9967 20.0721 18.3549C20.0721 16.3671 18.2656 14.7784 16.0817 14.7784C15.0593 14.7784 14.2865 14.1166 14.2865 13.3686C14.2865 12.6206 15.0593 11.9588 16.0817 11.9588C17.104 11.9588 17.8768 12.6206 17.8768 13.3686Z" fill="url(#paint2_linear)" stroke="url(#paint3_linear)" stroke-width="0.3" stroke-linecap="round" stroke-linejoin="round"/>
<defs>
<linearGradient id="paint0_linear" x1="43.082" y1="38.6892" x2="-50.1631" y2="7.68273" gradientUnits="userSpaceOnUse">
<stop stop-color="#B57E10"/>
<stop offset="0.1507" stop-color="#B57E10"/>
<stop offset="0.4638" stop-color="#E5C35C"/>
<stop offset="0.6129" stop-color="#F9DF7B"/>
<stop offset="0.7204" stop-color="#FFF3A6"/>
<stop offset="0.8387" stop-color="#F9DF7B"/>
<stop offset="1" stop-color="#B57E10"/>
</linearGradient>
<linearGradient id="paint1_linear" x1="43.082" y1="38.6892" x2="-50.1631" y2="7.68273" gradientUnits="userSpaceOnUse">
<stop stop-color="#B57E10"/>
<stop offset="0.1507" stop-color="#B57E10"/>
<stop offset="0.4638" stop-color="#E5C35C"/>
<stop offset="0.6129" stop-color="#F9DF7B"/>
<stop offset="0.7204" stop-color="#FFF3A6"/>
<stop offset="0.8387" stop-color="#F9DF7B"/>
<stop offset="1" stop-color="#B57E10"/>
</linearGradient>
<linearGradient id="paint2_linear" x1="22.9208" y1="25.7158" x2="-2.42864" y2="20.9918" gradientUnits="userSpaceOnUse">
<stop stop-color="#B57E10"/>
<stop offset="0.1507" stop-color="#B57E10"/>
<stop offset="0.4638" stop-color="#E5C35C"/>
<stop offset="0.6129" stop-color="#F9DF7B"/>
<stop offset="0.7204" stop-color="#FFF3A6"/>
<stop offset="0.8387" stop-color="#F9DF7B"/>
<stop offset="1" stop-color="#B57E10"/>
</linearGradient>
<linearGradient id="paint3_linear" x1="22.9208" y1="25.7158" x2="-2.42864" y2="20.9918" gradientUnits="userSpaceOnUse">
<stop stop-color="#B57E10"/>
<stop offset="0.1507" stop-color="#B57E10"/>
<stop offset="0.4638" stop-color="#E5C35C"/>
<stop offset="0.6129" stop-color="#F9DF7B"/>
<stop offset="0.7204" stop-color="#FFF3A6"/>
<stop offset="0.8387" stop-color="#F9DF7B"/>
<stop offset="1" stop-color="#B57E10"/>
</linearGradient>
</defs>
</svg>
