<svg width="15" height="15" viewBox="0 0 15 15" fill="none" xmlns="http://www.w3.org/2000/svg">
<path d="M10.9396 0H4.06036C1.82144 0 0 1.82144 0 4.06036V10.9397C0 13.1785 1.82144 15 4.06036 15H10.9397C13.1785 15 15 13.1785 15 10.9397V4.06036C15 1.82144 13.1785 0 10.9396 0V0ZM7.49999 11.6014C5.23841 11.6014 3.39855 9.76156 3.39855 7.49999C3.39855 5.23841 5.23841 3.39855 7.49999 3.39855C9.76156 3.39855 11.6014 5.23841 11.6014 7.49999C11.6014 9.76156 9.76156 11.6014 7.49999 11.6014ZM11.6995 4.3658C11.0312 4.3658 10.4876 3.8222 10.4876 3.15387C10.4876 2.48554 11.0312 1.94183 11.6995 1.94183C12.3678 1.94183 12.9115 2.48554 12.9115 3.15387C12.9115 3.8222 12.3678 4.3658 11.6995 4.3658Z" fill="#8A9297"/>
<path d="M7.49991 4.27789C5.72333 4.27789 4.27783 5.72328 4.27783 7.49997C4.27783 9.27655 5.72333 10.722 7.49991 10.722C9.2766 10.722 10.722 9.27655 10.722 7.49997C10.722 5.72328 9.2766 4.27789 7.49991 4.27789Z" fill="#8A9297"/>
<path d="M11.6993 2.82133C11.5159 2.82133 11.3667 2.97057 11.3667 3.1539C11.3667 3.33723 11.5159 3.48646 11.6993 3.48646C11.8827 3.48646 12.0319 3.33735 12.0319 3.1539C12.0319 2.97045 11.8827 2.82133 11.6993 2.82133Z" fill="#8A9297"/>
</svg>
