<svg width="19" height="17" viewBox="0 0 19 17" fill="none" xmlns="http://www.w3.org/2000/svg">
<path d="M17.1 0H1.9C0.855 0 0 0.765 0 1.7V15.3C0 16.235 0.855 17 1.9 17H17.1C18.145 17 19 16.235 19 15.3V1.7C19 0.765 18.145 0 17.1 0ZM5.7 14.45H2.85V6.8H5.7V14.45ZM4.275 5.355C3.325 5.355 2.565 4.675 2.565 3.825C2.565 2.975 3.325 2.295 4.275 2.295C5.225 2.295 5.985 2.975 5.985 3.825C5.985 4.675 5.225 5.355 4.275 5.355ZM16.15 14.45H13.3V9.945C13.3 9.26503 12.635 8.67 11.875 8.67C11.115 8.67 10.45 9.26503 10.45 9.945V14.45H7.6V6.8H10.45V7.82C10.925 7.14 11.97 6.63 12.825 6.63C14.63 6.63 16.15 7.99 16.15 9.605V14.45Z" fill="white"/>
</svg>
