<svg width="138" height="72" viewBox="0 0 138 72" fill="none" xmlns="http://www.w3.org/2000/svg">
<g clip-path="url(#clip0)">
<path d="M64.2 43.8813H68.19V31.1553H77.64V28.0053H68.19V18.1353H79.11L79.572 14.9433H64.2V43.8813ZM92.3909 43.8813H96.3809V31.1553H105.831V28.0053H96.3809V18.1353H107.301L107.763 14.9433H92.3909V43.8813ZM133.904 43.8813H138.104L128.864 14.9433H123.824L114.542 43.8813H118.574L120.758 36.6153H131.72L133.904 43.8813ZM121.724 33.3813L126.26 18.2613L130.754 33.3813H121.724Z" fill="url(#paint0_linear)"/>
<path d="M72 8.25V0C71.4576 1.26 70.3729 3.75 69.939 4.26C70.4542 4.65 70.7797 5.28 70.7797 6C70.7797 7.17 69.939 8.1 68.8814 8.1C67.8237 8.1 66.9831 7.17 66.9831 6C66.9831 5.79 67.0102 5.58 67.0644 5.37L64 3.6C64.4068 5.46 65.8169 9.3 67.661 9.9H66.1695L66.7119 12H72V9.9H70.5085C70.9966 9.6 72 8.85 72 8.25Z" fill="url(#paint1_linear)"/>
<path d="M73.3051 9.9H72V12H76.6271L77.1017 9.9H75.7966C77.4102 9.3 78.6441 5.46 79 3.6L76.3186 5.37C76.3661 5.58 76.3898 5.79 76.3898 6C76.3898 7.17 75.6542 8.1 74.7288 8.1C73.8034 8.1 73.0678 7.17 73.0678 6C73.0678 5.28 73.3525 4.62 73.8034 4.26C73.4237 3.75 72.4746 1.29 72 0V8.25C72 8.85 72.878 9.6 73.3051 9.9Z" fill="url(#paint2_linear)"/>
<g clip-path="url(#clip1)">
<path fill-rule="evenodd" clip-rule="evenodd" d="M39.7908 52.1244C33.2856 52.8778 25.3863 49.9145 19.3034 52.8778C27.076 46.8508 47.2255 56.1424 50.5203 38.1117C42.4943 47.5037 29.8217 42.9835 19.0077 49.0105C6.50409 55.9918 13.0939 70.0045 26.1889 68.9498C23.7389 68.4978 17.3603 64.3291 18.8388 60.512C21.5845 53.2294 35.6089 59.608 39.7908 52.1244ZM51.8721 24.2496C48.535 35.9018 34.6373 37.1072 27.5829 40.0705C31.5536 37.2579 42.0719 34.2946 47.0142 27.6649C49.7177 23.9985 50.985 18.072 47.9858 12.7984C47.0565 21.4873 39.8753 29.6739 31.9338 33.5915C41.0159 28.1169 49.2531 9.13193 38.9882 2C40.0021 15.6109 30.0329 32.587 13.643 46.0975C12.7137 46.8508 11.0662 48.458 10.5171 49.6634C10.6861 47.8051 13.3051 45.3943 14.0654 44.6409C9.1231 45.6454 2.91352 42.0292 1.85746 47.5037C2.7023 47.554 3.54715 47.9055 4.26526 48.5082C2.87127 47.8553 -0.508095 47.6042 -0.00118637 50.467C0.294506 49.6634 1.30832 49.563 2.36436 49.7639C7.94032 51.0195 7.13772 55.6402 10.5593 58.6537C10.8128 53.6312 14.6146 49.9648 18.4586 47.7046C29.9907 41.0247 54.0264 45.8463 51.8721 24.2496Z" fill="url(#paint3_linear)"/>
</g>
<path d="M64.5591 59V56.9868H66.627V56.269H64.5591V54.813H66.8218V54.0679H63.6772V59H64.5591ZM68.6962 59V54.0679H67.8144V59H68.6962ZM70.7654 59V55.541H70.7962L73.2469 59H74.0057V54.0679H73.158V57.5234H73.1272L70.68 54.0679H69.9144V59H70.7654ZM78.4504 59H79.3801L77.6301 54.0679H76.6354L74.8854 59H75.7946L76.215 57.7251H78.03L78.4504 59ZM77.1105 54.9395H77.1345L77.8215 57.0449H76.4201L77.1105 54.9395ZM81.1109 59V55.541H81.1417L83.5924 59H84.3512V54.0679H83.5035V57.5234H83.4728L81.0255 54.0679H80.2599V59H81.1109ZM87.6987 59.082C88.8643 59.082 89.6709 58.4429 89.8247 57.3867H88.96C88.8232 57.9814 88.355 58.3335 87.7021 58.3335C86.8477 58.3335 86.3076 57.6396 86.3076 56.5322C86.3076 55.4316 86.8511 54.7344 87.6987 54.7344C88.3379 54.7344 88.8403 55.1411 88.9565 55.7598H89.8247C89.7153 54.7002 88.8438 53.9858 87.6987 53.9858C86.2974 53.9858 85.4053 54.96 85.4053 56.5322C85.4053 58.1147 86.2905 59.082 87.6987 59.082ZM91.7265 59V54.0679H90.8446V59H91.7265ZM96.1678 59H97.0975L95.3475 54.0679H94.3528L92.6028 59H93.512L93.9324 57.7251H95.7474L96.1678 59ZM94.8279 54.9395H94.8519L95.5389 57.0449H94.1375L94.8279 54.9395ZM101.098 58.2549H98.8591V54.0679H97.9772V59H101.098V58.2549ZM104.877 59V56.9868H106.945V56.269H104.877V54.813H107.14V54.0679H103.996V59H104.877ZM109.015 54.7822H110.013C110.573 54.7822 110.915 55.1035 110.915 55.623C110.915 56.1562 110.594 56.4673 110.033 56.4673H109.015V54.7822ZM109.015 57.144H109.992L110.959 59H111.968L110.891 57.0107C111.479 56.7988 111.821 56.2554 111.821 55.6025C111.821 54.6592 111.182 54.0679 110.115 54.0679H108.133V59H109.015V57.144ZM116.077 58.2549H113.767V56.8467H115.951V56.146H113.767V54.813H116.077V54.0679H112.885V59H116.077V58.2549ZM120.385 58.2549H118.075V56.8467H120.259V56.146H118.075V54.813H120.385V54.0679H117.193V59H120.385V58.2549ZM121.501 54.0679V59H123.326C124.803 59 125.671 58.084 125.671 56.522C125.671 54.96 124.799 54.0679 123.326 54.0679H121.501ZM122.383 54.813H123.234C124.218 54.813 124.772 55.4214 124.772 56.5254C124.772 57.6499 124.225 58.2549 123.234 58.2549H122.383V54.813ZM128.892 53.9858C127.453 53.9858 126.551 54.9668 126.551 56.5356C126.551 58.1045 127.453 59.082 128.892 59.082C130.328 59.082 131.23 58.1045 131.23 56.5356C131.23 54.9668 130.328 53.9858 128.892 53.9858ZM128.892 54.7378C129.771 54.7378 130.331 55.4351 130.331 56.5356C130.331 57.6328 129.771 58.3301 128.892 58.3301C128.01 58.3301 127.453 57.6328 127.453 56.5356C127.453 55.4351 128.01 54.7378 128.892 54.7378ZM137.373 54.0679H136.355L134.844 57.79H134.817L133.306 54.0679H132.284V59H133.08V55.5H133.104L134.53 58.959H135.131L136.557 55.5H136.58V59H137.373V54.0679ZM66.9004 69H67.8301L66.0801 64.0679H65.0854L63.3354 69H64.2446L64.665 67.7251H66.48L66.9004 69ZM65.5605 64.9395H65.5845L66.2715 67.0449H64.8701L65.5605 64.9395ZM70.6308 69.082C71.7963 69.082 72.6029 68.4429 72.7567 67.3867H71.892C71.7553 67.9814 71.287 68.3335 70.6342 68.3335C69.7797 68.3335 69.2396 67.6396 69.2396 66.5322C69.2396 65.4316 69.7831 64.7344 70.6308 64.7344C71.2699 64.7344 71.7724 65.1411 71.8886 65.7598H72.7567C72.6474 64.7002 71.7758 63.9858 70.6308 63.9858C69.2294 63.9858 68.3373 64.96 68.3373 66.5322C68.3373 68.1147 69.2226 69.082 70.6308 69.082ZM76.8904 69H77.8201L76.0701 64.0679H75.0755L73.3255 69H74.2347L74.6551 67.7251H76.47L76.8904 69ZM75.5506 64.9395H75.5745L76.2615 67.0449H74.8602L75.5506 64.9395ZM78.6999 64.0679V69H80.5251C82.0017 69 82.8698 68.084 82.8698 66.522C82.8698 64.96 81.9982 64.0679 80.5251 64.0679H78.6999ZM79.5817 64.813H80.4328C81.4172 64.813 81.9709 65.4214 81.9709 66.5254C81.9709 67.6499 81.424 68.2549 80.4328 68.2549H79.5817V64.813ZM87.1095 68.2549H84.7989V66.8467H86.983V66.146H84.7989V64.813H87.1095V64.0679H83.9171V69H87.1095V68.2549ZM93.3145 64.0679H92.2959L90.7852 67.79H90.7578L89.2471 64.0679H88.2251V69H89.0215V65.5H89.0454L90.4707 68.959H91.0723L92.4976 65.5H92.5215V69H93.3145V64.0679ZM96.8021 69V67.0552L98.5316 64.0679H97.5712L96.3783 66.2144H96.3578L95.1615 64.0679H94.1942L95.9237 67.0552V69H96.8021Z" fill="url(#paint4_linear)"/>
</g>
<defs>
<linearGradient id="paint0_linear" x1="169.842" y1="64.0184" x2="-36.707" y2="-50.2633" gradientUnits="userSpaceOnUse">
<stop stop-color="#B57E10"/>
<stop offset="0.1507" stop-color="#B57E10"/>
<stop offset="0.4638" stop-color="#E5C35C"/>
<stop offset="0.6129" stop-color="#F9DF7B"/>
<stop offset="0.7204" stop-color="#FFF3A6"/>
<stop offset="0.8387" stop-color="#F9DF7B"/>
<stop offset="1" stop-color="#B57E10"/>
</linearGradient>
<linearGradient id="paint1_linear" x1="75.1232" y1="14.1929" x2="49.2158" y2="8.14463" gradientUnits="userSpaceOnUse">
<stop stop-color="#B57E10"/>
<stop offset="0.1507" stop-color="#B57E10"/>
<stop offset="0.4638" stop-color="#E5C35C"/>
<stop offset="0.6129" stop-color="#F9DF7B"/>
<stop offset="0.7204" stop-color="#FFF3A6"/>
<stop offset="0.8387" stop-color="#F9DF7B"/>
<stop offset="1" stop-color="#B57E10"/>
</linearGradient>
<linearGradient id="paint2_linear" x1="81.7328" y1="14.1929" x2="58.7858" y2="9.50541" gradientUnits="userSpaceOnUse">
<stop stop-color="#B57E10"/>
<stop offset="0.1507" stop-color="#B57E10"/>
<stop offset="0.4638" stop-color="#E5C35C"/>
<stop offset="0.6129" stop-color="#F9DF7B"/>
<stop offset="0.7204" stop-color="#FFF3A6"/>
<stop offset="0.8387" stop-color="#F9DF7B"/>
<stop offset="1" stop-color="#B57E10"/>
</linearGradient>
<linearGradient id="paint3_linear" x1="-20.3771" y1="81.2509" x2="145.152" y2="36.2145" gradientUnits="userSpaceOnUse">
<stop stop-color="#B57E10"/>
<stop offset="0.1507" stop-color="#B57E10"/>
<stop offset="0.4638" stop-color="#E5C35C"/>
<stop offset="0.6129" stop-color="#F9DF7B"/>
<stop offset="0.7204" stop-color="#FFF3A6"/>
<stop offset="0.8387" stop-color="#F9DF7B"/>
<stop offset="1" stop-color="#B57E10"/>
</linearGradient>
<linearGradient id="paint4_linear" x1="167.524" y1="75.8376" x2="67.6383" y2="-49.0847" gradientUnits="userSpaceOnUse">
<stop stop-color="#B57E10"/>
<stop offset="0.1507" stop-color="#B57E10"/>
<stop offset="0.4638" stop-color="#E5C35C"/>
<stop offset="0.6129" stop-color="#F9DF7B"/>
<stop offset="0.7204" stop-color="#FFF3A6"/>
<stop offset="0.8387" stop-color="#F9DF7B"/>
<stop offset="1" stop-color="#B57E10"/>
</linearGradient>
<clipPath id="clip0">
<rect width="138" height="72" fill="white"/>
</clipPath>
<clipPath id="clip1">
<rect width="52" height="67" fill="white" transform="matrix(-1 0 0 1 52 2)"/>
</clipPath>
</defs>
</svg>
