<svg width="16" height="16" viewBox="0 0 16 16" fill="none" xmlns="http://www.w3.org/2000/svg">
<path fill-rule="evenodd" clip-rule="evenodd" d="M15.1111 8C15.1111 11.9274 11.9274 15.1111 8 15.1111C4.07264 15.1111 0.888889 11.9274 0.888889 8C0.888889 4.07264 4.07264 0.888889 8 0.888889C11.9274 0.888889 15.1111 4.07264 15.1111 8ZM16 8C16 12.4183 12.4183 16 8 16C3.58172 16 0 12.4183 0 8C0 3.58172 3.58172 0 8 0C12.4183 0 16 3.58172 16 8ZM6.04427 4.29601C5.60677 4.7173 5.36979 5.27431 5.33333 5.96701H6.3724C6.4048 5.52951 6.56076 5.18519 6.84028 4.93403C7.11574 4.68287 7.48235 4.55729 7.9401 4.55729C8.38571 4.55729 8.74624 4.68084 9.0217 4.92795C9.29311 5.17101 9.42882 5.48293 9.42882 5.86372C9.42882 6.18374 9.35388 6.45515 9.20399 6.67795C9.05816 6.89265 8.807 7.10938 8.45052 7.32812C7.63628 7.81829 7.23119 8.43403 7.23524 9.17535V9.73438H8.29861V9.33941C8.29861 9.01534 8.36748 8.75405 8.50521 8.55556C8.64699 8.34896 8.90828 8.13223 9.28906 7.90538C10.1357 7.39497 10.559 6.69618 10.559 5.80903C10.559 5.17708 10.322 4.65451 9.84809 4.24132C9.36198 3.82002 8.74016 3.60938 7.98264 3.60938C7.16435 3.60938 6.51823 3.83825 6.04427 4.29601ZM7.27778 12.3047C7.41146 12.4384 7.57552 12.5052 7.76997 12.5052C7.96846 12.5052 8.13252 12.4384 8.26215 12.3047C8.39583 12.171 8.46267 12.0069 8.46267 11.8125C8.46267 11.614 8.39583 11.4499 8.26215 11.3203C8.13252 11.1866 7.96846 11.1198 7.76997 11.1198C7.57552 11.1198 7.41146 11.1866 7.27778 11.3203C7.1441 11.4499 7.07726 11.614 7.07726 11.8125C7.07726 12.0069 7.1441 12.171 7.27778 12.3047Z" fill="url(#paint0_linear)"/>
<defs>
<linearGradient id="paint0_linear" x1="22.2465" y1="18.9239" x2="-26.4241" y2="1.8802" gradientUnits="userSpaceOnUse">
<stop stop-color="#B57E10"/>
<stop offset="0.1507" stop-color="#B57E10"/>
<stop offset="0.4638" stop-color="#E5C35C"/>
<stop offset="0.6129" stop-color="#F9DF7B"/>
<stop offset="0.7204" stop-color="#FFF3A6"/>
<stop offset="0.8387" stop-color="#F9DF7B"/>
<stop offset="1" stop-color="#B57E10"/>
</linearGradient>
</defs>
</svg>
