<svg width="25" height="25" viewBox="0 0 25 25" fill="none" xmlns="http://www.w3.org/2000/svg">
<g clip-path="url(#clip0)">
<path d="M0.732482 20.5566H4.39458V22.7539C4.39458 23.1584 4.72251 23.4863 5.127 23.4863H24.2676C24.6721 23.4863 25 23.1584 25 22.7539V3.71093C25 3.30644 24.6721 2.97851 24.2676 2.97851H20.6055V2.24609C20.6055 1.8416 20.2776 1.51367 19.8731 1.51367C19.4686 1.51367 19.1406 1.8416 19.1406 2.24609V2.97851H15.4297V2.24609C15.4297 1.8416 15.1018 1.51367 14.6973 1.51367C14.2928 1.51367 13.9649 1.8416 13.9649 2.24609V2.97851H10.3028V2.24609C10.3028 1.8416 9.97485 1.51367 9.57035 1.51367C9.16586 1.51367 8.83793 1.8416 8.83793 2.24609V2.97851H5.127C4.72251 2.97851 4.39458 3.30644 4.39458 3.71093V8.10546C4.39458 13.5034 2.15118 17.656 0.263586 19.2615C0.0266724 19.459 -0.0611692 19.7836 0.0437622 20.0735C0.148791 20.3635 0.424084 20.5566 0.732482 20.5566ZM23.5352 22.0214H5.85942V20.5566H19.8731C20.0444 20.5566 20.2103 20.4965 20.342 20.3868C21.2224 19.6535 22.5862 17.9075 23.5352 15.6713V22.0214ZM5.85942 4.44335H8.83793V5.17577C8.83793 5.58027 9.16586 5.90819 9.57035 5.90819C9.97485 5.90819 10.3028 5.58027 10.3028 5.17577V4.44335H13.9649V5.17577C13.9649 5.58027 14.2928 5.90819 14.6973 5.90819C15.1018 5.90819 15.4297 5.58027 15.4297 5.17577V4.44335H19.1406V5.17577C19.1406 5.58027 19.4686 5.90819 19.8731 5.90819C20.2776 5.90819 20.6055 5.58027 20.6055 5.17577V4.44335H23.5352V7.37304H5.85942V4.44335ZM5.84688 8.83739H23.5222C23.3571 13.4836 21.5739 17.1393 19.5859 19.0918H2.39844C4.65103 16.2216 5.72603 12.4845 5.84688 8.83739Z" fill="url(#paint0_linear)"/>
</g>
<defs>
<linearGradient id="paint0_linear" x1="34.7601" y1="27.5016" x2="-38.9171" y2="-1.85385" gradientUnits="userSpaceOnUse">
<stop stop-color="#B57E10"/>
<stop offset="0.1507" stop-color="#B57E10"/>
<stop offset="0.4638" stop-color="#E5C35C"/>
<stop offset="0.6129" stop-color="#F9DF7B"/>
<stop offset="0.7204" stop-color="#FFF3A6"/>
<stop offset="0.8387" stop-color="#F9DF7B"/>
<stop offset="1" stop-color="#B57E10"/>
</linearGradient>
<clipPath id="clip0">
<rect width="25" height="25" fill="white"/>
</clipPath>
</defs>
</svg>
