<svg width="14" height="16" viewBox="0 0 14 16" fill="none" xmlns="http://www.w3.org/2000/svg">
<path d="M7.00027 9.41174C3.08813 9.41174 0.933594 11.2496 0.933594 14.5869C0.933594 14.8476 1.14632 15.0588 1.40879 15.0588H12.5917C12.8542 15.0588 13.0669 14.8476 13.0669 14.5869C13.067 11.2498 10.9124 9.41174 7.00027 9.41174ZM1.90127 14.115C2.08819 11.6198 3.80125 10.3556 7.00027 10.3556C10.1993 10.3556 11.9124 11.6198 12.0995 14.115H1.90127Z" fill="white" stroke="white" stroke-width="0.4"/>
<path d="M7.00007 0.941162C5.13772 0.941162 3.7334 2.3134 3.7334 4.133C3.7334 6.00589 5.19881 7.5294 7.00007 7.5294C8.80132 7.5294 10.2667 6.00589 10.2667 4.13315C10.2667 2.3134 8.86241 0.941162 7.00007 0.941162ZM7.00007 6.58611C5.74182 6.58611 4.71832 5.48573 4.71832 4.13315C4.71832 2.83026 5.67797 1.8846 7.00007 1.8846C8.301 1.8846 9.28181 2.85116 9.28181 4.13315C9.28181 5.48573 8.25831 6.58611 7.00007 6.58611Z" fill="white" stroke="white" stroke-width="0.4"/>
</svg>
