<svg width="36" height="37" viewBox="0 0 36 37" fill="none" xmlns="http://www.w3.org/2000/svg">
<path d="M5.51972 5.93091L5.51972 5.93091C2.19572 9.25505 0.364844 13.6751 0.364844 18.376C0.364844 23.077 2.19572 27.497 5.51972 30.8212L5.59043 30.7505L5.51972 30.8212C8.84385 34.1452 13.2639 35.976 17.9648 35.976C22.6658 35.976 27.0858 34.1452 30.41 30.8212L30.3393 30.7505L30.41 30.8212C33.734 27.497 35.5648 23.077 35.5648 18.376C35.5648 13.6751 33.734 9.25505 30.41 5.93091L30.3393 6.00162L30.41 5.93091C27.0858 2.60692 22.6658 0.776038 17.9648 0.776038C13.2639 0.776038 8.84385 2.60692 5.51972 5.93091ZM12.4894 9.78188L12.4894 9.78187C13.5386 7.27419 15.025 5.28108 16.8395 3.91802V12.0406H11.7066C11.9267 11.258 12.1881 10.502 12.4894 9.78188ZM24.7312 22.4607H19.0902V14.2914H21.956C22.385 15.6636 23.5762 16.7014 25.0325 16.9069C25.1449 18.7813 25.0406 20.662 24.7312 22.4607ZM7.11132 7.52251L7.04061 7.4518L7.11132 7.52251C9.00823 5.62553 11.314 4.28677 13.8295 3.58759C12.4424 5.02818 11.2882 6.8214 10.4131 8.91315C9.99875 9.90341 9.65331 10.9525 9.37867 12.0406H3.97537C4.72842 10.3798 5.78292 8.8509 7.11132 7.52251ZM25.7099 9.39086C24.8159 7.09018 23.6014 5.13788 22.1105 3.59056C24.6221 4.29058 26.924 5.62811 28.8184 7.52251C30.1468 8.8509 31.2013 10.3798 31.9543 12.0406H29.1698C28.7037 10.5498 27.3377 9.45354 25.7099 9.39086ZM33.3141 18.376C33.3141 19.7759 33.1275 21.1467 32.7671 22.4607H27.0109C27.3123 20.5327 27.4005 18.5298 27.2641 16.54C28.1678 16.0826 28.8632 15.2722 29.1698 14.2914H32.7671C33.1275 15.6054 33.3141 16.9762 33.3141 18.376ZM8.61807 19.2696C7.21729 19.8041 6.13797 20.993 5.754 22.4607H3.16256C2.80216 21.1467 2.61562 19.7759 2.61562 18.376C2.61562 16.9762 2.80216 15.6054 3.16256 14.2914H8.92093C8.66685 15.9148 8.56301 17.5929 8.61807 19.2696ZM25.5629 14.6943C24.7202 14.6943 24.0345 14.0086 24.0345 13.166C24.0345 12.3234 24.7202 11.6377 25.5629 11.6377C26.4055 11.6377 27.0912 12.3234 27.0912 13.166C27.0912 14.0086 26.4055 14.6943 25.5629 14.6943ZM21.956 12.0406H19.0902V3.91432C21.3231 5.58278 22.6949 7.93371 23.5239 9.98566C22.7855 10.4607 22.2233 11.1859 21.956 12.0406ZM16.8395 22.4607H14.8095C14.3314 20.6329 12.7742 19.2374 10.8615 18.9999C10.8217 17.4074 10.9378 15.8187 11.2005 14.2914H16.8395V22.4607ZM10.2817 21.2147C11.6214 21.2147 12.7115 22.3048 12.7115 23.6444C12.7115 24.9841 11.6214 26.0742 10.2817 26.0742C8.94209 26.0742 7.85202 24.9841 7.85202 23.6444C7.85202 22.3048 8.94209 21.2147 10.2817 21.2147ZM12.7615 27.6121C13.7918 26.9658 14.5534 25.9297 14.8387 24.7115H16.8395V32.8491C15.139 31.5979 13.773 29.8459 12.7615 27.6121ZM23.594 26.5918C22.5376 29.281 20.9978 31.4045 19.0902 32.8356V24.7115H24.2238C24.042 25.357 23.8321 25.9855 23.594 26.5918ZM10.6096 28.3124C11.4395 30.2107 12.497 31.8263 13.7741 33.1485C11.2802 32.4452 8.99427 31.1125 7.11125 29.2295C5.78292 27.9012 4.72842 26.3723 3.97537 24.7115H5.72487C6.20912 26.7797 8.06768 28.3249 10.2817 28.3249C10.3925 28.3249 10.5017 28.3202 10.6096 28.3124ZM28.8184 29.2296C26.922 31.1259 24.6172 32.4644 22.1026 33.1638C23.5822 31.6274 24.7949 29.6906 25.6889 27.4146C26.0291 26.5488 26.3175 25.644 26.5532 24.7114H31.9543C31.2013 26.3723 30.1468 27.9012 28.8184 29.2296Z" fill="url(#paint0_linear)" stroke="url(#paint1_linear)" stroke-width="0.2"/>
<defs>
<linearGradient id="paint0_linear" x1="49.129" y1="42.272" x2="-57.3378" y2="4.98897" gradientUnits="userSpaceOnUse">
<stop stop-color="#B57E10"/>
<stop offset="0.1507" stop-color="#B57E10"/>
<stop offset="0.4638" stop-color="#E5C35C"/>
<stop offset="0.6129" stop-color="#F9DF7B"/>
<stop offset="0.7204" stop-color="#FFF3A6"/>
<stop offset="0.8387" stop-color="#F9DF7B"/>
<stop offset="1" stop-color="#B57E10"/>
</linearGradient>
<linearGradient id="paint1_linear" x1="49.129" y1="42.272" x2="-57.3378" y2="4.98897" gradientUnits="userSpaceOnUse">
<stop stop-color="#B57E10"/>
<stop offset="0.1507" stop-color="#B57E10"/>
<stop offset="0.4638" stop-color="#E5C35C"/>
<stop offset="0.6129" stop-color="#F9DF7B"/>
<stop offset="0.7204" stop-color="#FFF3A6"/>
<stop offset="0.8387" stop-color="#F9DF7B"/>
<stop offset="1" stop-color="#B57E10"/>
</linearGradient>
</defs>
</svg>
