<svg width="19" height="15" viewBox="0 0 19 15" fill="none" xmlns="http://www.w3.org/2000/svg">
<path d="M18.6085 2.34714C18.3896 1.42934 17.7478 0.705842 16.934 0.458706C15.4472 0 9.49979 0 9.49979 0C9.49979 0 3.55265 0 2.06584 0.441315C1.26764 0.68819 0.610218 1.42947 0.391273 2.34714C0 4.02348 0 7.5 0 7.5C0 7.5 0 10.994 0.391273 12.6529C0.61045 13.5705 1.25198 14.294 2.06595 14.5412C3.56831 15 9.50002 15 9.50002 15C9.50002 15 15.4472 15 16.934 14.5587C17.7479 14.3117 18.3896 13.5882 18.6088 12.6705C18.9999 10.994 18.9999 7.51765 18.9999 7.51765C18.9999 7.51765 19.0156 4.02348 18.6085 2.34714ZM7.60628 10.7117V4.28827L12.5518 7.5L7.60628 10.7117Z" fill="white"/>
</svg>
